<?xml version="1.0" standalone="no"?>
<!DOCTYPE svg PUBLIC "-//W3C//DTD SVG 20010904//EN"
 "http://www.w3.org/TR/2001/REC-SVG-20010904/DTD/svg10.dtd">
<svg version="1.0" xmlns="http://www.w3.org/2000/svg"
 width="189.000000pt" height="189.000000pt" viewBox="0 0 189.000000 189.000000"
 preserveAspectRatio="xMidYMid meet">

<g transform="translate(0.000000,189.000000) scale(0.100000,-0.100000)"
fill="#000000" stroke="none">
<path d="M705 1791 c-53 -24 -75 -58 -75 -117 0 -52 36 -126 71 -145 20 -10
19 -12 -16 -54 -84 -104 -126 -246 -130 -449 -3 -128 -3 -129 -29 -143 -48
-25 -46 -105 4 -130 17 -9 74 -13 172 -13 l148 0 6 -25 c11 -45 59 -75 118
-75 61 0 92 18 112 66 l14 34 156 0 c151 0 156 1 179 25 37 36 33 78 -10 112
-35 27 -35 29 -29 84 9 79 -13 261 -42 347 -26 79 -40 105 -91 168 l-32 42 20
18 c86 77 95 210 17 250 -39 20 -122 18 -167 -5 -36 -19 -102 -83 -114 -112
-5 -10 -11 -8 -24 11 -87 121 -164 154 -258 111z m132 -143 c26 -25 29 -38 8
-38 -28 0 -65 24 -65 42 0 25 28 23 57 -4z m353 14 c0 -11 -28 -36 -57 -51
-31 -16 -30 3 2 34 23 24 55 34 55 17z m-372 -193 c30 -6 62 -6 101 1 36 6 75
7 106 1 32 -6 71 -5 109 1 l60 11 29 -34 c83 -99 119 -226 121 -439 1 -151 2
-155 23 -158 27 -4 47 -27 40 -47 -5 -12 -37 -15 -179 -17 l-172 -3 -7 -32
c-10 -50 -26 -63 -75 -63 -47 0 -65 17 -78 73 l-6 27 -159 0 c-88 0 -166 3
-175 6 -29 11 -19 43 16 52 l32 8 2 155 c2 210 34 327 116 432 33 41 34 41 96
26z"/>
<path d="M363 611 c-51 -13 -96 -44 -128 -90 -27 -38 -30 -51 -30 -116 0 -65
3 -78 30 -116 17 -23 50 -53 74 -66 l44 -23 652 0 652 0 44 23 c24 13 58 43
74 66 27 38 30 51 30 116 0 65 -3 78 -30 117 -17 23 -51 54 -75 68 l-45 25
-630 2 c-346 1 -644 -2 -662 -6z m685 -87 c3 -23 -18 -37 -43 -28 -16 6 -20
35 -8 48 14 14 48 1 51 -20z m122 7 c0 -10 -7 -21 -15 -25 -8 -3 -15 -10 -15
-16 0 -5 7 -10 15 -10 8 0 15 -9 15 -20 0 -11 -7 -20 -15 -20 -12 0 -15 -14
-15 -65 0 -63 -1 -65 -25 -65 -24 0 -25 2 -25 65 0 51 -3 65 -15 65 -8 0 -15
9 -15 20 0 11 7 20 15 20 8 0 15 9 15 19 0 27 27 51 56 51 17 0 24 -6 24 -19z
m70 -5 c0 -29 -28 -42 -48 -22 -20 20 -8 46 23 46 20 0 25 -5 25 -24z m-660
-58 l29 -63 0 63 c1 63 1 63 29 60 l27 -3 0 -105 0 -105 -36 -3 c-35 -3 -36
-2 -67 65 l-31 68 0 -68 -1 -68 -27 3 -28 3 -3 94 c-1 52 -1 100 2 108 3 7 21
13 41 13 34 0 37 -3 65 -62z m360 36 c0 -9 9 -18 20 -21 11 -3 20 -13 20 -23
0 -10 -9 -20 -20 -23 -29 -8 -29 -77 0 -84 30 -8 21 -37 -13 -41 -43 -5 -57
13 -57 74 0 30 -4 54 -10 54 -5 0 -10 9 -10 20 0 11 5 20 10 20 6 0 10 9 10
20 0 15 7 20 25 20 16 0 25 -6 25 -16z m-97 -46 c10 -13 17 -37 17 -64 0 -59
-25 -84 -84 -84 -67 0 -96 40 -82 116 6 27 15 39 39 49 39 18 86 10 110 -17z
m564 11 c7 -6 13 -29 13 -50 l0 -39 -51 0 c-36 0 -49 -4 -46 -12 2 -8 21 -13
45 -13 47 0 60 -9 42 -30 -18 -22 -102 -20 -123 3 -40 44 -28 132 21 151 30
11 78 6 99 -10z m143 -4 c0 -14 -4 -25 -9 -25 -24 0 -41 -34 -41 -81 0 -46 -2
-49 -25 -49 -25 0 -25 1 -25 85 l0 86 35 -3 c19 -1 37 1 41 5 14 14 24 7 24
-18z m-500 -71 l0 -85 -27 3 c-28 3 -28 4 -31 86 l-3 82 31 0 30 0 0 -86z
m190 0 l0 -85 -27 3 c-27 3 -28 5 -31 72 -4 84 0 96 33 96 25 0 25 -1 25 -86z"/>
<path d="M754 426 c-3 -8 -4 -27 -2 -43 4 -39 43 -45 52 -8 4 15 4 35 1 46 -7
22 -43 26 -51 5z"/>
<path d="M1325 430 c-4 -6 5 -10 19 -10 14 0 26 5 26 10 0 6 -9 10 -19 10 -11
0 -23 -4 -26 -10z"/>
</g>
</svg>
